<svg width="69" height="76" viewBox="0 0 69 76" fill="none" xmlns="http://www.w3.org/2000/svg">
<path d="M50.1201 30.6888H47.0289V28.7858C47.0289 25.3152 39.0074 22.8791 34.6653 22.8791C30.3226 22.8791 22.3016 25.3152 22.3016 28.7858V30.6888H19.2104V28.7858C19.2104 22.3606 30.117 19.7651 34.6653 19.7651C39.214 19.7651 50.1201 22.3606 50.1201 28.7858V30.6888Z" fill="#95F4D8"/>
<path d="M31.2855 75.8443H24.4356C24.107 75.8435 23.7871 75.7381 23.5225 75.5433C23.2578 75.3485 23.062 75.0745 22.9635 74.761L18.368 60.2737H9.61879C4.68226 60.2737 0.665039 56.2269 0.665039 51.253V32.5508C0.665039 28.9483 3.57401 26.0176 7.14949 26.0176H7.38256C10.8008 26.0176 14.097 27.4622 16.4266 29.9808L21.4042 35.3601H30.0288C30.4617 35.3601 30.8749 35.5434 31.1677 35.8652C31.4604 36.186 31.6063 36.6174 31.5684 37.0513C31.3421 39.6981 29.436 44.7032 23.847 44.7032H15.7928C15.5868 44.703 15.3829 44.6615 15.1932 44.5812C15.0034 44.5008 14.8317 44.3833 14.6882 44.2355L14.574 44.1177V47.8172H20.7319C24.0037 47.8172 26.9319 49.9169 28.0168 53.0418C28.0355 53.0958 28.0516 53.1513 28.0646 53.2069L32.7914 73.9387C32.8437 74.1668 32.8442 74.4038 32.7927 74.6321C32.7412 74.8604 32.6391 75.0742 32.494 75.2577C32.35 75.4405 32.1664 75.5882 31.9571 75.6898C31.7478 75.7914 31.5182 75.8442 31.2855 75.8443ZM25.5646 72.7303H29.3446L25.0726 53.9943C24.4003 52.1588 22.6661 50.9312 20.7319 50.9312H13.0287C12.1753 50.9312 11.4834 50.2341 11.4834 49.3739V40.9362L7.13236 36.458L9.34211 34.2789L16.4432 41.5881H23.8475C26.4154 41.5881 27.5725 39.8674 28.0885 38.4741H20.7319C20.5195 38.474 20.3094 38.4299 20.1148 38.3445C19.9202 38.2592 19.7454 38.1346 19.6014 37.9784L14.166 32.1039C13.3002 31.1691 12.2509 30.4227 11.0838 29.9114C9.91671 29.4001 8.65675 29.1348 7.38256 29.1321H7.14949C5.27817 29.1321 3.75621 30.6655 3.75621 32.5513V51.253C3.75621 54.5103 6.38591 57.1597 9.61879 57.1597H19.497C19.8257 57.1605 20.1455 57.2659 20.4102 57.4607C20.6749 57.6555 20.8707 57.9295 20.9692 58.2431L25.5646 72.7303Z" fill="#95F4D8"/>
<path d="M11.4834 24.4603C7.29433 24.4603 3.75623 20.8953 3.75623 16.6751V15.1178C3.75623 10.8929 7.29485 7.32422 11.4834 7.32422C15.6719 7.32422 19.2105 10.8929 19.2105 15.1178V16.6751C19.2105 20.9674 15.744 24.4603 11.4834 24.4603ZM11.4834 10.4382C8.97046 10.4382 6.84687 12.5815 6.84687 15.1178V16.6751C6.84687 19.2067 8.97046 21.3463 11.4834 21.3463C13.9963 21.3463 16.1199 19.2067 16.1199 16.6751V15.1178C16.1199 12.5815 13.9963 10.4382 11.4834 10.4382Z" fill="#95F4D8"/>
<path d="M44.6053 75.8443H37.7564C37.5237 75.8442 37.2939 75.7914 37.0845 75.6897C36.8751 75.588 36.6915 75.4401 36.5475 75.2573C36.4027 75.0735 36.3008 74.8597 36.2494 74.6314C36.1979 74.4032 36.1981 74.1664 36.2501 73.9382L40.9769 53.2064C40.9888 53.1509 41.0054 53.0953 41.0236 53.0413C42.11 49.9164 45.0382 47.8167 48.31 47.8167H54.7561V43.8275L54.3423 44.2449C54.1993 44.3898 54.029 44.5049 53.8411 44.5835C53.6533 44.6621 53.4517 44.7026 53.2481 44.7027H45.4831C39.8946 44.7027 37.988 39.6977 37.7616 37.0508C37.7427 36.8362 37.7685 36.6201 37.8373 36.4159C37.9061 36.2118 38.0164 36.0241 38.1613 35.8647C38.3056 35.7058 38.4815 35.5788 38.6777 35.4918C38.8739 35.4048 39.0861 35.3598 39.3007 35.3596H47.6378L52.6138 29.9803C54.944 27.4617 58.2402 26.0171 61.6573 26.0171H61.8914C65.5635 26.0171 68.665 29.0091 68.665 32.5503V51.252C68.665 56.1413 64.4329 60.2727 59.4227 60.2727H50.6739L46.0769 74.761C45.9785 75.0745 45.7828 75.3485 45.5182 75.5433C45.2536 75.7381 44.9339 75.8435 44.6053 75.8443ZM39.6973 72.7303H43.4763L48.0733 58.2421C48.1719 57.9287 48.3676 57.6549 48.6322 57.4602C48.8968 57.2655 49.2164 57.1601 49.5449 57.1592H59.4232C62.7573 57.1592 65.5749 54.4543 65.5749 51.2525V32.5508C65.5749 30.7294 63.8541 29.1316 61.8925 29.1316H61.6584C60.3842 29.1344 59.1244 29.3998 57.9574 29.9113C56.7904 30.4228 55.7415 31.1694 54.876 32.1044L49.4411 37.9784C49.297 38.1345 49.1222 38.2592 48.9276 38.3445C48.7331 38.4298 48.523 38.4739 48.3105 38.4742H41.2426C41.7571 39.8664 42.9151 41.5882 45.4836 41.5882H52.607L59.8545 34.269L62.043 36.4679L57.8472 40.7057V49.374C57.8472 50.2341 57.1558 50.9312 56.3019 50.9312H48.3105C46.3759 50.9312 44.6416 52.1589 43.9684 53.9944L39.6973 72.7303Z" fill="#95F4D8"/>
<path d="M57.8473 24.4603C53.6593 24.4603 50.1201 20.8953 50.1201 16.6751V15.1178C50.1201 10.8929 53.6593 7.32422 57.8473 7.32422C62.0353 7.32422 65.5744 10.8929 65.5744 15.1178V16.6751C65.5744 20.8953 62.0353 24.4603 57.8473 24.4603ZM57.8473 10.4382C55.3344 10.4382 53.2108 12.5815 53.2108 15.1178V16.6751C53.2108 19.2067 55.3344 21.3463 57.8473 21.3463C60.3602 21.3463 62.4838 19.2067 62.4838 16.6751V15.1178C62.4838 12.5815 60.3602 10.4382 57.8473 10.4382Z" fill="#95F4D8"/>
<path d="M56.3019 41.5884V44.7024H13.0287V41.5884H56.3019Z" fill="#95F4D8"/>
<path d="M34.6653 18.2318C30.4762 18.2318 26.9381 14.6667 26.9381 10.4466V8.88929C26.9381 4.66443 30.4762 1.0957 34.6653 1.0957C38.8533 1.0957 42.3924 4.66443 42.3924 8.88929V10.4466C42.3924 14.6673 38.8533 18.2318 34.6653 18.2318ZM34.6653 4.20971C32.1523 4.20971 30.0288 6.35303 30.0288 8.88929V10.4466C30.0288 12.9781 32.1523 15.1178 34.6653 15.1178C37.1782 15.1178 39.3017 12.9781 39.3017 10.4466V8.88929C39.3017 6.35303 37.1782 4.20971 34.6653 4.20971Z" fill="#95F4D8"/>
</svg>
