<svg preserveAspectRatio="xMidYMid meet" data-bbox="10 10 180 180" viewBox="10 10 180 180" height="200" width="200" xmlns="http://www.w3.org/2000/svg" data-type="color" role="presentation" aria-hidden="true"><defs><style>#comp-l5sp9sfx svg [data-color="1"] {fill: #372E87;}</style></defs>
    <g>
        <path d="M99.038 128.131c-3.799 0-7.598-.842-10.976-2.106-3.377-1.263-5.91-3.369-8.443-5.896-2.533-2.527-4.221-5.474-5.488-9.264s-2.111-8.001-2.111-12.633.844-8.843 2.111-12.633c1.266-3.79 2.955-6.738 5.488-9.264 2.533-2.527 5.066-4.632 8.443-5.896 3.377-1.263 6.754-2.106 10.976-2.106 2.955 0 5.91.421 8.443 1.263 2.533.842 5.066 2.106 6.754 3.369 2.111 1.684 3.799 3.369 5.066 5.896 1.266 2.106 2.111 5.053 2.533 8.001H111.28c0-3.369-1.266-5.896-3.799-8.001s-5.488-2.527-8.865-2.527c-2.533 0-4.644.421-6.754 1.263-2.111.842-3.799 2.106-5.066 4.211-1.266 1.684-2.533 4.211-3.377 6.738-.844 2.527-1.266 5.896-1.266 9.264 0 3.369.422 6.738 1.266 9.686.844 2.527 2.111 5.053 3.377 6.738 1.266 1.684 2.955 3.369 5.066 4.211s4.221 1.263 6.754 1.263c1.689 0 3.377-.421 4.644-.842 1.266-.421 2.955-1.263 3.799-2.106.844-.842 2.111-2.106 2.955-3.369.844-1.263 1.266-2.948 1.266-4.632h10.553c-.422 2.948-1.266 5.474-2.533 8.001-1.266 2.106-2.955 4.211-5.066 5.896-2.111 1.684-4.221 2.527-6.754 3.369s-5.488 2.106-8.442 2.106z" fill="#000020" data-color="1"/>
        <path d="M100 190c-49.61 0-90-40.292-90-90.219S50.39 10 100 10s90 40.292 90 89.781S149.61 190 100 190zm0-166.861c-42.585 0-76.829 34.599-76.829 76.642s34.244 77.08 76.829 77.08 76.829-34.599 76.829-76.642-34.244-77.08-76.829-77.08z" fill="#000020" data-color="1"/>
    </g>
</svg>