<svg width="96" height="64" viewBox="0 0 96 64" fill="none" xmlns="http://www.w3.org/2000/svg">
<path d="M48.1858 0.439941C40.7955 0.439941 35.0071 4.27202 35.0071 9.1667C35.0071 9.19862 35.0138 9.2297 35.0138 9.26246C34.9474 9.43802 34.9004 9.62366 34.9004 9.8219V55.3659C34.9004 55.7111 35.034 56.0135 35.2213 56.2747C36.3057 60.3966 41.6044 63.4399 48.1858 63.4399C54.7672 63.4399 60.066 60.3966 61.1504 56.2747C61.3377 56.0135 61.4713 55.7111 61.4713 55.3659V8.71982C61.4713 8.4191 61.3654 8.15366 61.2201 7.91342C60.3255 3.63614 54.9302 0.439941 48.1858 0.439941ZM58.1566 28.5967C58.1566 31.5955 53.5896 34.1315 48.185 34.1315C42.7796 34.1315 38.2134 31.5955 38.2134 28.5967C38.2134 28.4111 38.1655 28.2381 38.1067 28.0717V27.7945C40.5057 29.6711 44.0976 30.8471 48.1842 30.8471C52.2716 30.8471 55.8626 29.6711 58.2616 27.7945V28.0717C58.1976 28.2396 58.1621 28.4171 58.1566 28.5967ZM58.2633 34.2726V34.5481C58.2045 34.7145 58.1566 34.8867 58.1566 35.0731C58.1566 38.0719 53.5896 40.6079 48.185 40.6079C42.7796 40.6079 38.2134 38.0719 38.2134 35.0731C38.2134 34.8875 38.1655 34.7145 38.1067 34.5481V34.2726C40.5057 36.1483 44.0976 37.3243 48.1842 37.3243C52.2724 37.3235 55.8643 36.1483 58.2633 34.2726ZM38.1075 40.7482C40.5066 42.6239 44.0984 43.7999 48.185 43.7999C52.2724 43.7999 55.8634 42.6239 58.2625 40.7482V41.0237C58.2037 41.19 58.1558 41.3622 58.1558 41.5487C58.1558 44.5475 53.5887 47.0835 48.1842 47.0835C42.7788 47.0835 38.2125 44.5475 38.2125 41.5487C38.2125 41.3631 38.1646 41.19 38.1058 41.0237V40.7482H38.1075ZM58.2633 21.5945C58.2045 21.7608 58.1566 21.933 58.1566 22.1195C58.1566 25.1208 53.5896 27.6559 48.185 27.6559C42.7796 27.6559 38.2134 25.12 38.2134 22.1195C38.2134 21.9339 38.1655 21.7608 38.1067 21.5945V21.3198C40.5057 23.1964 44.0976 24.3724 48.1842 24.3724C52.2716 24.3724 55.8626 23.1964 58.2616 21.3198V21.5945H58.2633ZM38.1075 47.2246C40.5066 49.1003 44.0984 50.2763 48.185 50.2763C52.2724 50.2763 55.8634 49.1003 58.2625 47.2246V47.7101C58.2037 47.8764 58.1558 48.0486 58.1558 48.2351C58.1558 51.2339 53.5887 53.7699 48.1842 53.7699C42.7788 53.7699 38.2125 51.2339 38.2125 48.2351C38.2125 48.0495 38.1646 47.8764 38.1058 47.7101V47.2246H38.1075ZM48.1858 3.63194C53.5904 3.63194 58.1575 6.1679 58.1575 9.1667C58.1575 9.35234 58.2054 9.52538 58.2642 9.6917V15.1181C58.2054 15.2844 58.1575 15.4566 58.1575 15.6431C58.1575 18.6444 53.5904 21.1795 48.1858 21.1795C42.7804 21.1795 38.2142 18.6436 38.2142 15.6431C38.2142 15.4575 38.1663 15.2844 38.1075 15.1181V14.8426C40.5066 16.7183 44.0984 17.8943 48.185 17.8943C50.8663 17.8943 53.4367 17.3785 55.6215 16.4041C56.4296 16.0421 56.7908 15.0988 56.4296 14.2949C56.2543 13.908 55.933 13.6062 55.5359 13.4555C55.1388 13.3047 54.6982 13.3172 54.3103 13.4902C52.5354 14.2823 50.4177 14.7015 48.1858 14.7015C42.7804 14.7015 38.2142 12.1655 38.2142 9.1667C38.2142 6.1679 42.7804 3.63194 48.1858 3.63194ZM48.1858 60.2479C42.7804 60.2479 38.2142 57.712 38.2142 54.7115C38.2142 54.5259 38.1663 54.3528 38.1075 54.1865V53.911C40.5066 55.7867 44.0984 56.9627 48.185 56.9627C52.2724 56.9627 55.8634 55.7867 58.2625 53.911V54.1865C58.2037 54.3528 58.1558 54.525 58.1558 54.7115C58.1566 57.712 53.5896 60.2479 48.1858 60.2479Z" fill="white"/>
<path d="M14.0104 13.4961C6.62094 13.4961 0.832494 17.3307 0.832494 22.2254C0.832494 22.2565 0.838377 22.2859 0.839217 22.3169C0.772017 22.4933 0.724976 22.6807 0.724976 22.8806V42.3106C0.724976 42.6575 0.859374 42.9608 1.04837 43.2229C2.13617 47.3422 7.43322 50.383 14.0104 50.383C20.5893 50.383 25.888 47.3414 26.9741 43.2203C27.1623 42.9591 27.2959 42.6559 27.2959 42.3106V21.7777C27.2959 21.4769 27.19 21.2115 27.0447 20.9713C26.1509 16.6931 20.7548 13.4961 14.0104 13.4961ZM3.93294 34.3751C6.33198 36.2517 9.92382 37.4277 14.0104 37.4277C18.097 37.4277 21.6889 36.2517 24.0879 34.376V34.6515C24.0291 34.8178 23.9812 34.99 23.9812 35.1765C23.9812 38.1778 19.415 40.7129 14.0096 40.7129C8.60501 40.7129 4.03961 38.177 4.03961 35.1765C4.03961 34.9883 3.99174 34.8145 3.9321 34.6465L3.93294 34.3751ZM14.0104 16.6881C19.4158 16.6881 23.9821 19.2241 23.9821 22.2245C23.9821 22.4102 24.0299 22.5832 24.0887 22.7495V28.1759C24.0299 28.3423 23.9821 28.5145 23.9821 28.7009C23.9821 31.6997 19.4158 34.2357 14.0104 34.2357C8.60586 34.2357 4.04045 31.6997 4.04045 28.7009C4.04045 28.5128 3.99258 28.3389 3.93294 28.1709V27.8996C6.33198 29.7761 9.92382 30.9521 14.0104 30.9521C16.6883 30.9521 19.2604 30.4364 21.4478 29.462C21.6396 29.3768 21.8127 29.2547 21.9572 29.1025C22.1017 28.9503 22.2147 28.7711 22.2898 28.5751C22.3648 28.3792 22.4005 28.1703 22.3947 27.9606C22.3888 27.7508 22.3417 27.5442 22.2559 27.3527C22.0814 26.9651 21.7602 26.6626 21.3628 26.5117C20.9654 26.3608 20.5243 26.3738 20.1365 26.548C18.3591 27.3401 16.2406 27.7593 14.0104 27.7593C8.60586 27.7593 4.04045 25.2233 4.04045 22.2245C4.04045 19.2241 8.60586 16.6881 14.0104 16.6881ZM14.0104 47.1893C8.60586 47.1893 4.04045 44.6534 4.04045 41.6529C4.04045 41.4647 3.99258 41.2909 3.93294 41.1229V40.8524C6.33198 42.7298 9.92382 43.9058 14.0104 43.9058C18.097 43.9058 21.6889 42.7298 24.0879 40.8532V41.1279C24.0291 41.2942 23.9812 41.4664 23.9812 41.6529C23.9821 44.6542 19.4158 47.1893 14.0104 47.1893Z" fill="white"/>
<path d="M95.645 21.7775C95.645 21.4768 95.5391 21.2114 95.3938 20.9711C94.5001 16.693 89.1047 13.4951 82.3595 13.4951C74.9692 13.4951 69.1808 17.3297 69.1808 22.2244C69.1808 22.2563 69.1875 22.2874 69.1875 22.3202C69.1211 22.4957 69.0741 22.6814 69.0741 22.8796V42.3096C69.0741 42.6549 69.2077 42.9581 69.3958 43.2194C70.4819 47.3396 75.7798 50.382 82.3595 50.382C88.9393 50.382 94.2371 47.3404 95.3233 43.2194C95.5106 42.9581 95.645 42.6549 95.645 42.3096V21.7775ZM72.2821 34.3758C74.6811 36.2516 78.2729 37.4276 82.3595 37.4276C86.4461 37.4276 90.038 36.2516 92.437 34.3758V34.6514C92.3782 34.8177 92.3303 34.9899 92.3303 35.1764C92.3303 38.1777 87.7633 40.7128 82.3587 40.7128C76.9541 40.7128 72.3871 38.1768 72.3871 35.1764C72.3871 34.9907 72.3392 34.8177 72.2804 34.6514V34.3758H72.2821ZM82.3595 16.688C87.7641 16.688 92.3312 19.2239 92.3312 22.2244C92.3312 22.41 92.3791 22.5831 92.4379 22.7494V28.1758C92.3791 28.3421 92.3312 28.5143 92.3312 28.7008C92.3312 31.6996 87.7641 34.2356 82.3595 34.2356C76.955 34.2356 72.3879 31.6996 72.3879 28.7008C72.3879 28.5152 72.34 28.3421 72.2812 28.1758V27.9003C74.6803 29.776 78.2721 30.952 82.3587 30.952C85.04 30.952 87.6104 30.4362 89.7952 29.4618C90.6033 29.0998 90.9645 28.1565 90.6033 27.3526C90.4282 26.9656 90.1069 26.6636 89.7097 26.5128C89.3126 26.362 88.8719 26.3746 88.484 26.5479C86.7091 27.34 84.5914 27.7592 82.3595 27.7592C76.955 27.7592 72.3879 25.2232 72.3879 22.2244C72.3879 19.2239 76.955 16.688 82.3595 16.688ZM82.3595 47.1892C76.955 47.1892 72.3879 44.6532 72.3879 41.6528C72.3879 41.4671 72.34 41.2941 72.2812 41.1278V40.8531C74.6803 42.7296 78.2721 43.9056 82.3587 43.9056C86.4453 43.9056 90.0371 42.7296 92.4362 40.8531V41.1278C92.3774 41.2941 92.3295 41.4663 92.3295 41.6528C92.3312 44.6541 87.7641 47.1892 82.3595 47.1892Z" fill="white"/>
</svg>
