<svg width="22" height="30" viewBox="0 0 22 30" fill="none" xmlns="http://www.w3.org/2000/svg">
<g clip-path="url(#clip0_1_1220)">
<path d="M11.1649 29.5023L10.4311 28.6194C10.0328 28.1394 0.665039 16.8025 0.665039 11.238C0.665039 5.43716 5.37519 0.717773 11.1649 0.717773C16.9554 0.717773 21.665 5.43716 21.665 11.238C21.665 16.8027 12.2978 28.1396 11.8986 28.6194L11.1649 29.5023ZM11.1649 2.63058C6.42791 2.63058 2.57387 6.49169 2.57387 11.2379C2.57387 14.9456 8.22323 22.8004 11.1649 26.4926C14.107 22.8005 19.7564 14.9456 19.7564 11.2379C19.7562 6.49169 15.9023 2.63058 11.1649 2.63058Z" fill="white"/>
<path d="M11.1648 15.4857C8.82748 15.4857 6.92517 13.5803 6.92517 11.2379C6.92517 8.8955 8.8273 6.98975 11.1648 6.98975C13.5027 6.98975 15.4048 8.8955 15.4048 11.2379C15.4048 13.5803 13.5027 15.4857 11.1648 15.4857ZM11.1648 8.90256C9.88002 8.90256 8.83454 9.95002 8.83454 11.2379C8.83454 12.5254 9.88002 13.5731 11.1648 13.5731C12.4502 13.5731 13.4962 12.5254 13.4962 11.2379C13.496 9.95002 12.45 8.90256 11.1648 8.90256Z" fill="white"/>
</g>
<defs>
<clipPath id="clip0_1_1220">
<rect width="21" height="29" fill="white" transform="translate(0.665039 0.609863)"/>
</clipPath>
</defs>
</svg>
