<svg width="83" height="100" viewBox="0 0 83 100" fill="none" xmlns="http://www.w3.org/2000/svg">
<path d="M41.005 0.611572C18.3973 0.611572 0.00500488 18.9258 0.00500488 41.4367C0.00500488 54.4587 6.70914 68.1053 19.9304 81.9972C29.6275 92.1864 39.1863 98.5734 39.5886 98.8405C40.0084 99.1196 40.5012 99.2686 41.0053 99.2686C41.5094 99.2686 42.0023 99.1196 42.4221 98.8405C42.8244 98.5734 52.3831 92.1864 62.0803 81.9972C75.3009 68.1053 82.005 54.4587 82.005 41.4367C82.005 18.9258 63.6127 0.611572 41.005 0.611572ZM41.005 93.5765C34.1862 88.6706 5.13 66.2987 5.13 41.4367C5.13 21.7516 21.2231 5.73657 41.005 5.73657C60.7869 5.73657 76.88 21.7516 76.88 41.4367C76.88 66.2987 47.8238 88.6706 41.005 93.5765ZM41.005 26.12C32.5276 26.12 25.63 32.9913 25.63 41.4367C25.63 49.8827 32.5276 56.7534 41.005 56.7534C49.4824 56.7534 56.38 49.882 56.38 41.4367C56.38 32.9913 49.4824 26.12 41.005 26.12ZM41.005 51.6284C35.3534 51.6284 30.755 47.0562 30.755 41.4367C30.755 35.8171 35.3534 31.245 41.005 31.245C46.6566 31.245 51.255 35.8171 51.255 41.4367C51.255 47.0569 46.6566 51.6284 41.005 51.6284Z" fill="#95F4D8"/>
</svg>
