<svg width="34" height="35" viewBox="0 0 34 35" fill="none" xmlns="http://www.w3.org/2000/svg">
<path d="M14.7202 13.2461C15.0346 12.9317 14.9953 12.1848 14.6612 11.8507L12.0277 9.21721C11.7132 8.90276 11.0843 8.96172 10.7699 9.27617L10.1017 9.94438L14.052 13.9143L14.7202 13.2461Z" fill="#CD7F32"/>
<path d="M17.4128 21.953C16.2139 21.953 14.9365 21.5207 13.9341 20.5184C12.2243 18.8085 12.2636 16.2929 13.3249 14.7403L9.3746 10.79C8.68674 11.8513 8.54917 13.3843 8.94223 15.1924C9.47287 17.4721 10.8289 19.7912 12.755 21.7172C14.6613 23.6236 17.0786 25.0386 19.3584 25.5889C21.1862 26.0213 22.7584 25.9033 23.8197 25.2351L19.8497 21.2652C19.1815 21.6976 18.3168 21.953 17.4128 21.953Z" fill="#CD7F32"/>
<path d="M17 0.589844C7.62543 0.589844 0 8.21528 0 17.5898C0 26.9644 7.62543 34.5898 17 34.5898C26.3746 34.5898 34 26.9644 34 17.5898C34 8.21528 26.3746 0.589844 17 0.589844ZM26.0994 24.6257L25.0381 25.687C24.9988 25.7263 24.9792 25.7459 24.9595 25.7459C24.0751 26.5517 22.8173 26.9448 21.3434 26.9448C20.6358 26.9448 19.889 26.8465 19.0832 26.65C16.5676 26.0407 14.0324 24.5667 11.9688 22.4835C9.9052 20.4002 8.45087 17.9043 7.88092 15.4083C7.31098 12.9713 7.68439 10.8685 8.90289 9.57135C8.92254 9.55169 8.9422 9.53204 8.9422 9.51239L10.0035 8.45112C10.3965 8.05805 10.9468 7.84187 11.4971 7.84187C12.0277 7.84187 12.4994 8.0384 12.8335 8.39216L15.4277 11.065C16.2139 11.8511 16.2532 13.2858 15.4867 14.0326L14.504 15.0349C13.4428 16.0962 13.3052 18.3367 14.7006 19.732C16.1549 21.1864 18.474 21.1078 19.5353 20.0661L20.5179 19.0835C20.911 18.6904 21.4613 18.4742 22.0116 18.4742C22.5422 18.4742 23.0139 18.6708 23.348 19.0245L25.9815 21.6581C26.8069 22.4245 26.8462 23.8592 26.0994 24.6257Z" fill="#CD7F32"/>
<path d="M22.6012 19.7914C22.2867 19.477 21.6578 19.5359 21.3434 19.8504L20.6752 20.5186L24.6451 24.4885L25.3133 23.8203C25.6278 23.5059 25.5885 22.7591 25.2544 22.425L22.6012 19.7914Z" fill="#CD7F32"/>
</svg>
