<svg width="75" height="95" viewBox="0 0 75 95" fill="none" xmlns="http://www.w3.org/2000/svg">
<path d="M34.1938 27.0136C34.1942 27.7886 34.5022 28.5317 35.0501 29.0797C35.5981 29.6276 36.3412 29.9356 37.1162 29.936H71.7427C73.356 29.936 74.665 28.6269 74.665 27.0136C74.665 25.4004 73.356 24.0913 71.7427 24.0913H37.1162C36.3412 24.0916 35.5981 24.3996 35.0501 24.9476C34.5022 25.4956 34.1942 26.2387 34.1938 27.0136Z" fill="#95F4D8"/>
<path d="M26.2515 24.0913H22.0532C20.4399 24.0913 19.1309 25.4004 19.1309 27.0136C19.1309 28.6269 20.4399 29.936 22.0532 29.936H26.2515C27.8648 29.936 29.1739 28.6269 29.1739 27.0136C29.1739 25.4004 27.8648 24.0913 26.2515 24.0913Z" fill="#95F4D8"/>
<path d="M37.1162 37.769C35.5029 37.769 34.1938 39.0781 34.1938 40.6914C34.1938 42.3046 35.5029 43.6137 37.1162 43.6137H58.3255C59.9387 43.6137 61.2478 42.3046 61.2478 40.6914C61.2478 39.0781 59.9387 37.769 58.3255 37.769H37.1162Z" fill="#95F4D8"/>
<path d="M26.2515 37.769H22.0532C20.4399 37.769 19.1309 39.0781 19.1309 40.6914C19.1309 42.3046 20.4399 43.6137 22.0532 43.6137H26.2515C27.8648 43.6137 29.1739 42.3046 29.1739 40.6914C29.1739 39.0781 27.8648 37.769 26.2515 37.769Z" fill="#95F4D8"/>
<path d="M71.7427 51.4478H37.1162C35.5029 51.4478 34.1938 52.7568 34.1938 54.3701C34.1938 55.9833 35.5029 57.2924 37.1162 57.2924H71.7427C73.356 57.2924 74.665 55.9833 74.665 54.3701C74.665 52.7568 73.356 51.4478 71.7427 51.4478Z" fill="#95F4D8"/>
<path d="M26.2515 51.4478H22.0532C20.4399 51.4478 19.1309 52.7568 19.1309 54.3701C19.1309 55.9833 20.4399 57.2924 22.0532 57.2924H26.2515C27.8648 57.2924 29.1739 55.9833 29.1739 54.3701C29.1739 52.7568 27.8648 51.4478 26.2515 51.4478Z" fill="#95F4D8"/>
<path d="M58.3255 70.9677C59.9387 70.9677 61.2478 69.6586 61.2478 68.0454C61.2478 66.4321 59.9387 65.123 58.3255 65.123H37.1162C35.5029 65.123 34.1938 66.4321 34.1938 68.0454C34.1938 69.6586 35.5029 70.9677 37.1162 70.9677H58.3255Z" fill="#95F4D8"/>
<path d="M26.2515 65.1235H22.0532C20.4399 65.1235 19.1309 66.4326 19.1309 68.0459C19.1309 69.6591 20.4399 70.9682 22.0532 70.9682H26.2515C27.8648 70.9682 29.1739 69.6591 29.1739 68.0459C29.1739 66.4326 27.8648 65.1235 26.2515 65.1235Z" fill="#95F4D8"/>
<path d="M63.975 76.1971C63.2 76.1974 62.4569 76.5054 61.909 77.0534C61.361 77.6014 61.053 78.3445 61.0527 79.1194V85.262C61.0518 86.1043 60.7169 86.9118 60.1213 87.5074C59.5258 88.1029 58.7183 88.4379 57.876 88.4387H9.68572C8.84347 88.4379 8.03596 88.1029 7.4404 87.5074C6.84484 86.9118 6.50989 86.1043 6.50906 85.262V9.799C6.50989 8.95675 6.84484 8.14924 7.4404 7.55368C8.03596 6.95812 8.84347 6.62317 9.68572 6.62234H57.876C58.7183 6.62317 59.5258 6.95812 60.1213 7.55368C60.7169 8.14924 61.0518 8.95675 61.0527 9.799V14.8345C61.0527 16.4478 62.3617 17.7568 63.975 17.7568C65.5883 17.7568 66.8973 16.4478 66.8973 14.8345V9.799C66.8973 4.82457 62.8511 0.77832 57.8766 0.77832H9.68572C4.71129 0.77832 0.665039 4.82457 0.665039 9.799V85.2614C0.665039 90.2358 4.71129 94.2821 9.68572 94.2821H57.876C62.8504 94.2821 66.8967 90.2358 66.8967 85.2614V79.1188C66.8965 78.344 66.5887 77.6009 66.0408 77.053C65.4929 76.5051 64.7498 76.1973 63.975 76.1971Z" fill="#95F4D8"/>
</svg>
