<svg width="97" height="133" viewBox="0 0 97 133" fill="none" xmlns="http://www.w3.org/2000/svg">
<path d="M96.5009 54.1714L95.5647 49.3114C94.0385 41.6002 91.8346 32.3743 89.8284 30.9564C89.769 30.9116 89.7043 30.8744 89.6356 30.8456C89.6012 30.83 89.5659 30.7964 89.5314 30.7857L81.5543 28.2955C81.1271 28.1687 80.6955 28.057 80.2604 27.9607C78.4987 27.548 77.8743 27.2813 77.8743 26.6142V23.4839C79.919 22.0825 81.2655 19.7358 81.2655 17.0781V12.6892C81.2655 12.2149 81.2877 11.977 81.2056 11.5257C81.3172 11.2598 81.4526 11.0211 81.5182 10.7995C82.6669 6.89302 80.0388 3.81935 76.8478 2.80437C73.7889 1.83123 69.857 2.60826 68.4744 6.62553C68.4523 6.68953 68.4564 6.75435 68.4482 6.81917C68.2184 7.0161 67.9952 7.21548 67.7901 7.43784C67.2781 7.18184 66.8654 6.87004 66.5897 6.49589C65.7889 5.41116 66.1901 4.10981 66.2098 4.04827C66.2844 3.82205 66.2664 3.57549 66.1596 3.36252C66.0529 3.14956 65.8662 2.98752 65.6403 2.91185C65.4134 2.83582 65.1655 2.85289 64.9511 2.95933C64.7367 3.06577 64.5732 3.25288 64.4965 3.47966C64.4678 3.56827 63.7737 5.69178 65.1169 7.53959C65.5197 8.09426 66.067 8.54636 66.73 8.91314C66.0974 10.0364 65.706 11.3123 65.706 12.69V17.079C65.706 19.7063 67.027 22.0242 69.0324 23.4314V26.615C69.0324 27.2821 68.4638 27.415 66.6463 27.9615C66.2122 28.092 65.7585 28.2134 65.3482 28.3398L57.3736 30.7866C57.3457 30.7956 57.3154 30.8251 57.2866 30.8382C57.2047 30.8719 57.1283 30.9179 57.0602 30.9745C57.0356 30.9958 57.0085 31.0311 56.9839 31.0557C56.9469 31.0967 56.9034 31.132 56.8747 31.1796C55.3674 32.8945 53.3285 40.1905 50.7947 52.9447C50.7578 52.5878 50.7282 52.2243 50.6667 51.887C50.3606 50.2025 50.2039 48.7847 50.0373 47.2815C49.8814 45.8636 49.719 44.3982 49.422 42.7153C48.7598 38.9778 47.5446 36.7132 45.0806 35.0106C45.7436 34.684 46.13 34.4608 46.1538 34.4477C46.5263 34.2245 46.688 33.7683 46.5386 33.3613C46.5386 33.3613 43.7144 25.5886 41.4178 19.3313C41.6196 19.3255 41.8305 19.3231 42.0143 19.3091C42.1323 19.2998 42.2473 19.2673 42.3528 19.2135C42.4582 19.1597 42.552 19.0857 42.6288 18.9956C42.7056 18.9055 42.7639 18.8012 42.8004 18.6886C42.8369 18.576 42.8508 18.4573 42.8414 18.3393C42.8205 18.1016 42.7071 17.8817 42.5258 17.7267C42.3444 17.5718 42.1095 17.4941 41.8715 17.5105C41.4995 17.533 41.1266 17.5385 40.754 17.527C39.57 14.3105 38.6428 11.8235 38.5296 11.6077C38.5296 11.6077 37.6902 10.1283 36.8631 9.45796C36.8458 9.44401 36.6612 9.25611 36.6415 9.26432C36.3407 9.01611 36.0223 8.78988 35.6889 8.58739C35.739 8.53898 35.7939 8.49877 35.8333 8.43806C36.4255 7.50956 36.6863 6.40814 36.5734 5.3127C36.2994 2.61401 33.8624 0.664452 31.1761 0.910608C28.4741 1.18466 26.4966 3.60273 26.7682 6.30224C26.8527 7.1162 27.1391 7.90226 27.5953 8.57508C27.5994 8.58083 27.6068 8.58329 27.6109 8.58903C27.1241 8.88313 26.6704 9.22893 26.2579 9.62042C26.216 9.60073 25.4751 10.5008 25.4505 10.5419C24.2222 12.6219 24.4355 12.6219 24.0621 13.4227L22.9471 17.3046C22.1807 17.0888 21.695 16.8049 21.6753 16.7926C21.4719 16.6677 21.2275 16.6281 20.9952 16.6825C20.7628 16.7369 20.5614 16.8809 20.4346 17.0831C20.3718 17.1835 20.3293 17.2953 20.3098 17.4122C20.2902 17.529 20.2939 17.6486 20.3207 17.764C20.3475 17.8794 20.3967 17.9884 20.4657 18.0847C20.5347 18.181 20.622 18.2628 20.7226 18.3253C20.7751 18.3581 21.4234 18.7528 22.4482 19.0425L18.4178 33.0758C18.3152 33.4319 18.4424 33.8159 18.7378 34.0407C18.9405 34.1958 19.1481 34.3222 19.3524 34.4674C16.2935 36.2307 14.8617 38.5626 14.1257 42.7153C13.7293 44.9594 13.3166 47.2002 12.9064 49.4411L12.2984 52.7601C12.2598 52.925 11.372 56.8167 13.7843 59.2274C14.7115 60.153 17.0328 61.8957 19.386 63.5868C19.112 68.8357 20.1934 74.5498 21.4496 81.1501C22.7748 88.1064 24.2714 95.9883 24.2853 104.616C21.0065 116.208 16.3353 123.399 10.7697 125.409C7.44006 126.609 4.58219 125.715 3.1192 125.037C2.4472 124.682 2.06401 124.455 2.03447 124.437C1.83426 124.316 1.59443 124.277 1.36598 124.329C1.13752 124.381 0.938447 124.52 0.81108 124.717C0.683168 124.913 0.636728 125.152 0.681609 125.382C0.726491 125.612 0.859163 125.815 1.05149 125.949C1.10236 125.984 1.47734 126.239 2.10996 126.55C4.1949 127.679 9.27228 130.182 15.3975 131.439C17.7819 131.929 20.0613 132.172 22.2283 132.172C29.6934 132.17 35.8062 129.285 40.1337 123.648C40.2559 123.487 40.3224 123.292 40.3208 123.09L40.2477 116.127L43.7907 112.146C44.4791 115.173 45.161 117.979 45.7928 120.287C45.7854 120.454 45.8199 120.616 45.9044 120.765C46.3376 122.53 46.5058 124.414 46.6125 125.695C46.7216 127.003 46.784 127.768 47.3444 127.988L51.8778 131.691C52.0386 131.822 52.2404 131.896 52.4489 131.896C53.2497 131.896 53.7527 131.383 54.0743 130.578C54.1662 130.656 54.2663 130.725 54.3795 130.777L56.9543 131.93C57.0743 131.984 57.2047 132.011 57.3362 132.01C57.4678 132.008 57.5973 131.977 57.7158 131.92C61.8315 129.937 64.2931 128.226 65.6494 127.12C65.7232 127.216 65.8135 127.297 65.9218 127.358C66.2032 127.523 66.5478 127.521 66.8268 127.355L69.363 125.873C69.6387 125.711 69.8102 125.415 69.8102 125.095V118.764C69.8102 118.629 69.7708 118.505 69.7175 118.389C69.8201 118.256 69.8972 118.104 69.9128 117.927L73.2137 80.5724L76.5147 117.927C76.5303 118.105 76.6091 118.257 76.7116 118.39C76.6535 118.506 76.6218 118.634 76.6189 118.764V125.095C76.6189 125.415 76.7904 125.711 77.0661 125.873L79.6023 127.355C79.8813 127.518 80.2259 127.522 80.5073 127.358C80.6138 127.299 80.7065 127.217 80.7798 127.12C82.1369 128.226 84.5985 129.937 88.7134 131.92C88.8318 131.977 88.9613 132.008 89.0929 132.01C89.2245 132.011 89.3548 131.984 89.4748 131.93L92.048 130.777C92.5378 130.558 92.8463 130.056 92.8168 129.532C92.7954 129.168 92.7413 128.309 83.6384 118.273C83.7033 118.155 83.7492 118.027 83.7558 117.883L85.6487 71.6665L86.5907 71.6616C86.7183 71.6602 86.8441 71.632 86.96 71.5786C87.0759 71.5252 87.1792 71.448 87.2632 71.352C87.3471 71.2559 87.4099 71.1432 87.4473 71.0212C87.4846 70.8992 87.4958 70.7707 87.4801 70.6441L86.8656 65.8909C87.5765 65.4637 88.2971 65.0528 89.0268 64.6584C92.8537 62.5612 97.6127 59.9511 96.5009 54.1714ZM85.2541 53.3911L86.0015 50.0958L87.6081 54.4659L85.6323 56.3236L85.2541 53.3911ZM83.4571 53.149C83.4339 53.2518 83.4286 53.3578 83.4415 53.4624L85.5601 69.8622L84.8446 69.8663C84.8356 69.8655 84.829 69.8605 84.82 69.8605C84.8085 69.8605 84.7987 69.8663 84.788 69.8671C83.3783 69.8745 81.4099 69.8753 79.9002 69.8564C76.8692 69.8244 75.2027 68.5559 74.8138 66.0705L74.3674 57.7086C74.415 57.6487 74.4823 57.6085 74.5135 57.5355L83.1264 37.6125C83.1786 37.4917 83.2037 37.3609 83.2 37.2294C83.1964 37.0978 83.164 36.9687 83.1051 36.851L82.3453 35.3355L85.0284 33.7281C85.2197 33.6133 85.3617 33.4317 85.427 33.2184C85.4924 33.005 85.4763 32.7751 85.382 32.5728L84.7265 31.1697L88.1997 32.2471L83.4571 53.149ZM61.6272 69.8638C61.6214 69.8638 61.6165 69.8605 61.6108 69.8605C61.6067 69.8605 61.6026 69.863 61.5985 69.8638L61.3457 69.8622L63.4643 53.4624C63.4776 53.3579 63.4723 53.2517 63.4487 53.149L58.7086 32.2586L62.1753 31.1771L61.5238 32.572C61.4295 32.7742 61.4135 33.0042 61.4788 33.2176C61.5441 33.4309 61.6861 33.6125 61.8774 33.7273L64.5605 35.3347L63.8007 36.8502C63.6809 37.089 63.6736 37.3671 63.7794 37.6116L72.3932 57.5339C72.4252 57.6077 72.4917 57.6471 72.5393 57.7078L72.1019 65.9795C71.704 68.5551 70.0375 69.8236 67.0065 69.8556C65.3138 69.8761 63.0377 69.872 61.6272 69.8638ZM68.6369 29.8971L71.6031 31.3667L69.1907 32.6401L68.6369 29.8971ZM73.3352 32.2241L77.3943 34.2344L73.4542 53.7578L69.514 34.2418L73.3352 32.2241ZM77.7151 32.645L75.0443 31.3224L78.333 29.5861L77.7151 32.645ZM81.0161 30.0177L82.3978 30.446L83.403 32.5983L80.701 34.2163C80.5059 34.3332 80.3621 34.5194 80.2985 34.7378C80.2349 34.9561 80.2562 35.1904 80.358 35.3938L81.3032 37.281L76.2751 48.911L80.1356 29.788C80.4335 29.861 80.7363 29.9299 81.0161 30.0177ZM76.2997 4.52418C78.0359 5.07721 79.6376 6.43599 79.9289 8.34205C79.2164 7.2886 78.2566 6.42587 77.1334 5.82937C76.0102 5.23287 74.7579 4.92081 73.4862 4.92049C72.8281 4.92049 72.1996 5.02716 71.5883 5.18141C72.8937 4.13607 74.7005 4.01545 76.2997 4.52418ZM73.4862 6.72563C76.7789 6.72563 79.4579 9.40135 79.4579 12.69V13.4596C79.188 13.2077 78.8934 12.5308 78.6981 11.6332C78.2632 9.61714 76.4876 8.1681 74.4634 8.1681H74.4002L72.1897 8.18944C71.3879 8.2124 70.5857 8.16214 69.793 8.03928C70.8129 7.23025 72.0855 6.72563 73.4862 6.72563ZM67.5144 17.0781V12.6892C67.5144 11.5437 67.8549 10.4828 68.4178 9.57366C69.4886 9.8592 70.7456 10.0052 72.2094 9.99376L74.4273 9.97079H74.4626C75.6417 9.97079 76.6772 10.8241 76.9348 12.0114C77.4813 14.5493 78.5291 15.2705 79.4587 15.3534V17.0773C79.4587 20.366 76.7797 23.0417 73.487 23.0417C70.1934 23.0425 67.5144 20.3676 67.5144 17.0781ZM73.4862 24.8476C74.3953 24.8476 75.2552 24.6614 76.0667 24.3742V26.615C76.0667 27.5004 76.4228 28.1059 76.9447 28.5474L73.3122 30.4649L69.7544 28.7024C70.3871 28.2528 70.8408 27.612 70.8408 26.615V24.3545C71.6703 24.6556 72.5532 24.8476 73.4862 24.8476ZM65.8922 30.0177C66.1712 29.9299 66.4732 29.861 66.7727 29.7896L70.6332 48.9135L65.6051 37.2818L66.5503 35.3946C66.6521 35.1913 66.6734 34.9569 66.6098 34.7386C66.5462 34.5202 66.4024 34.334 66.2073 34.2171L63.5054 32.5991L64.5088 30.451L65.8922 30.0177ZM57.271 34.0818L60.179 46.8975C60.1626 46.9319 60.1363 46.9582 60.124 46.9951L54.7373 63.632L51.8343 57.0325C51.8359 57.0268 51.84 57.0219 51.8408 57.0153C53.5894 47.8394 55.8573 37.9784 57.271 34.0818ZM54.4599 72.0267L54.048 70.9346C53.7879 70.4447 53.4967 69.8942 53.1922 69.3149L54.7512 68.1465L56.3225 71.719C56.3504 71.7814 56.3857 71.8396 56.4251 71.8946C57.3498 73.1352 57.116 75.2571 56.3701 76.5108C56.1116 76.9482 55.5586 77.6686 54.8202 77.557C54.8005 77.5545 54.7824 77.5619 54.7635 77.5603C54.8489 75.3867 54.8464 72.9079 54.4599 72.0267ZM52.4029 71.669L52.8058 72.7471C52.8181 72.7824 53.1184 73.6554 52.9362 77.781C52.4489 77.4856 51.6759 76.8267 50.9867 76.0957C49.1225 74.5933 49.3202 69.8302 49.76 66.6285C50.6288 68.315 51.5098 69.9952 52.4029 71.669ZM43.1663 33.9144C42.7377 33.7033 42.302 33.5068 41.86 33.3252C38.308 31.8877 35.5913 30.5232 35.5913 27.1927V26.5428C35.5913 26.446 35.5642 26.3574 35.5363 26.2704C37.86 24.9248 39.4453 22.4419 39.4453 19.5725V19.3165L44.5735 33.2489C44.2281 33.4253 43.7489 33.6576 43.1663 33.9144ZM25.6942 19.264C25.9411 19.2287 26.1906 19.191 26.4474 19.1261C28.5578 18.5994 30.4146 17.1741 31.9826 14.8898C33.133 17.1733 35.3911 18.3721 37.6376 18.9284V19.5709C37.6376 22.8595 34.9586 25.5352 31.6659 25.5352C28.3732 25.5352 25.6942 22.8595 25.6942 19.5709V19.264ZM29.7631 27.0745C30.3744 27.2312 31.0046 27.3412 31.6651 27.3412C32.4044 27.3412 33.1051 27.2042 33.7837 27.0113V27.1927C33.7837 31.8147 37.7279 33.5911 40.8073 34.8424C36.4971 36.3497 29.6729 37.6879 23.2236 34.643C26.2168 33.3983 29.7631 31.5751 29.7631 27.1927V27.0745ZM36.8664 12.3093L37.5293 14.1111C37.5933 14.4599 37.6376 14.816 37.6376 15.1827V17.0781C35.7176 16.5407 33.7607 15.3756 33.1872 12.9148C33.6524 12.114 34.267 11.0473 34.7716 10.1103C35.6447 10.6542 36.3655 11.4108 36.8664 12.3093ZM29.0895 7.55764C28.7974 7.12921 28.6174 6.63439 28.566 6.11845C28.4844 5.29586 28.7323 4.4745 29.2555 3.83447C29.7786 3.19444 30.5342 2.788 31.3566 2.70426C31.9379 2.64548 32.524 2.75121 33.0481 3.0094C33.5722 3.26758 34.0133 3.66784 34.3209 4.16454C34.6286 4.66123 34.7905 5.23438 34.7882 5.81863C34.7859 6.40289 34.6195 6.97475 34.308 7.46902C34.2866 7.50266 34.2834 7.54123 34.267 7.57651C34.1521 7.62738 34.0528 7.70451 33.9666 7.80051C33.2388 7.56584 32.4733 7.41323 31.6659 7.41323C30.8027 7.41323 29.9871 7.58636 29.2126 7.8481C29.1886 7.74489 29.147 7.64662 29.0895 7.55764ZM31.6659 9.21919C32.1631 9.21919 32.6415 9.29058 33.1018 9.40627C32.5487 10.4108 31.9817 11.4075 31.4009 12.3962L31.1301 12.8639C29.6843 15.36 27.9719 16.8779 26.0355 17.3702C25.919 17.3998 25.8082 17.4072 25.6942 17.4285V15.1827C25.6942 11.8949 28.3732 9.21919 31.6659 9.21919ZM20.3271 32.9716L23.9653 20.3504C24.2304 22.9613 25.7943 25.175 27.99 26.3763C27.9793 26.4321 27.9563 26.4837 27.9563 26.5428V27.1927C27.9563 30.5223 25.2388 31.8869 21.6876 33.3252C21.5194 33.3933 21.3815 33.4672 21.2207 33.5361C20.922 33.3474 20.6217 33.1825 20.3271 32.9716ZM14.0658 53.1277L14.6811 49.7652C15.0966 47.5211 15.5044 45.2756 15.9045 43.0287C16.6077 39.0525 17.8886 37.1292 21.0796 35.5702C24.5897 37.5714 28.2411 38.2951 31.6388 38.2951C36.2723 38.2951 40.4176 36.993 43.0826 35.9025C45.8149 37.409 46.9858 39.3257 47.6414 43.0295C47.9294 44.6525 48.0886 46.0884 48.242 47.4792C48.4045 48.9463 48.5727 50.4634 48.8903 52.207C48.9772 52.6862 49.0224 53.195 49.0691 53.7078C49.1897 55.037 49.3268 56.5394 50.1662 57.7259L54.0037 66.4496L52.343 67.6944C49.7633 62.7466 46.4656 56.2194 45.9159 54.3773L41.316 42.9844C41.2426 42.7969 41.1078 42.6397 40.9336 42.5386C40.7594 42.4374 40.5562 42.3982 40.3569 42.4273C40.1582 42.454 39.9741 42.546 39.8335 42.689C39.693 42.8319 39.604 43.0175 39.5806 43.2166L38.6288 51.4587L24.6726 51.7615L22.2455 42.7612C22.2807 42.5474 22.2369 42.3282 22.1223 42.1443C22.0077 41.9604 21.8301 41.8245 21.6227 41.7618C21.3929 41.6949 21.146 41.7218 20.936 41.8365C20.7259 41.9512 20.5698 42.1444 20.5019 42.3739L17.3864 53.0112C17.2978 53.3156 17.3741 53.643 17.5882 53.8752L26.5885 63.6525L25.7844 65.8613C23.2909 64.1513 16.6832 59.5696 15.061 57.9499C13.3659 56.2571 14.0485 53.2023 14.0658 53.1277ZM19.2621 53.03L21.2847 46.1286L22.8724 52.0175C22.6755 52.1874 22.545 52.4302 22.5516 52.7108C22.5516 52.7289 22.5614 52.7437 22.5631 52.7609C22.0418 53.5115 21.5843 54.3045 21.1953 55.1314L19.2621 53.03ZM27.8152 65.5594C28.8048 66.6548 31.1465 69.5217 31.62 72.6495C31.0472 72.2917 30.4081 71.911 29.9125 71.6566C29.3734 71.381 28.9475 71.1627 28.4454 69.5791L27.9112 66.9116C27.8631 66.6802 27.7264 66.4767 27.5305 66.3446L27.8152 65.5594ZM9.06305 127.686C9.8424 127.573 10.6085 127.383 11.3498 127.117C17.6096 124.878 22.5598 117.43 26.0618 104.98C26.0732 104.939 26.065 104.9 26.0708 104.859C26.0765 104.817 26.0954 104.78 26.0954 104.737C26.0954 95.8907 24.5701 87.88 23.2236 80.8128C22.0839 74.8214 21.0951 69.5774 21.1559 64.8439C22.6709 65.9123 24.1952 66.9675 25.7286 68.0094C25.8782 68.111 26.0549 68.1653 26.2357 68.1653C26.2636 68.1653 26.2915 68.1547 26.3194 68.1522L26.6977 70.0255C27.3959 72.2466 28.1623 72.7865 29.1239 73.2788C30.1561 73.8064 32.0589 75.079 32.077 75.0913C32.2073 75.1797 32.3584 75.2322 32.5154 75.2437C32.6724 75.2552 32.8296 75.2253 32.9714 75.157C33.2594 75.0175 33.4538 74.7377 33.4801 74.4193C33.9396 69.0425 28.8359 63.9905 28.6185 63.7772C28.5775 63.7362 28.525 63.7165 28.4782 63.6853C28.5221 63.5392 28.5278 63.3842 28.4947 63.2353C28.4617 63.0863 28.391 62.9483 28.2895 62.8344L22.5122 56.5574C22.9502 55.5016 23.5098 54.5004 24.1795 53.574L39.1417 53.2491C39.2533 53.2466 39.6824 54.187 39.7497 54.3109C40.3533 55.4217 40.8744 56.5755 41.3087 57.7628C41.9314 59.4678 42.3712 61.2336 42.6896 63.019C42.9341 64.3868 43.1852 65.7907 43.3649 67.1676L47.9393 102.186C47.8916 102.139 47.8388 102.098 47.7817 102.063C45.3727 97.1182 42.011 88.2599 39.8957 82.1962L39.8941 82.1642V82.1199C39.8859 81.8849 39.7865 81.6623 39.617 81.4993C39.4474 81.3364 39.2211 81.2459 38.9859 81.2471C38.7507 81.2483 38.5253 81.341 38.3574 81.5056C38.1895 81.6703 38.0923 81.8939 38.0865 82.1289C38.0875 82.1828 38.0886 82.2367 38.0898 82.2906L38.5115 122.791C30.2554 133.246 17.1148 130.677 9.06305 127.686ZM47.5462 119.85C45.5401 112.53 43.0178 100.225 41.4301 91.6371C43.0055 95.7463 44.8853 100.353 46.496 103.493C46.6396 104.622 46.7897 105.995 46.9506 107.465C47.2386 110.113 47.5651 113.113 47.9261 115.294C47.9417 115.385 47.9705 115.472 48.0123 115.555L49.8314 119.132C49.8174 120.187 49.5836 120.592 49.4408 120.656C49.1159 120.812 48.2396 120.379 47.5462 119.85ZM43.2984 109.98L40.2182 113.44L40.0131 93.8066C41.0292 99.2125 42.1263 104.603 43.3042 109.976C43.3025 109.978 43.3001 109.978 43.2984 109.98ZM52.4538 129.831L48.5128 126.611C48.4717 126.257 48.438 125.902 48.4119 125.546C48.3258 124.43 48.1994 123.318 48.0328 122.212C48.4341 122.371 48.8599 122.485 49.2866 122.485C49.5967 122.488 49.9039 122.425 50.1875 122.299C50.5461 122.137 50.816 121.854 51.0433 121.513L52.8288 125.022C52.8255 126.206 52.8041 128.841 52.4538 129.831ZM54.5363 124.397L49.6853 114.861C49.3407 112.741 49.0248 109.838 48.745 107.27L48.7048 106.906C48.7442 106.941 48.7852 106.987 48.823 107.017C48.9633 107.13 49.1341 107.198 49.3134 107.212C49.4927 107.227 49.6723 107.187 49.8289 107.099C50.1506 106.918 50.3294 106.561 50.2827 106.196L45.1544 66.9362C45.0223 65.9171 44.8131 64.898 44.6588 63.8806C44.5148 62.9163 44.3369 61.9573 44.1255 61.0055C43.7415 59.2865 43.2278 57.5962 42.5485 55.9699C42.0972 54.8904 41.577 53.841 40.9911 52.8282C40.8836 52.6419 40.3806 52.0454 40.4028 51.8493L40.9681 46.9442L44.2125 54.9706C44.6367 56.4024 46.5395 60.3072 48.4045 63.9831C48.3862 64.0289 48.372 64.0761 48.3618 64.1243C48.1305 65.1844 46.2113 74.567 49.7559 77.4093C50.784 78.5187 52.174 79.7437 53.3096 79.7437C53.472 79.7421 53.6312 79.7174 53.7814 79.6625C53.9422 79.6042 54.1563 79.4836 54.3426 79.2653C54.4148 79.2965 54.4837 79.3326 54.5658 79.3441C54.7036 79.3638 54.8415 79.3728 54.9761 79.3728C56.1199 79.3728 57.1767 78.6828 57.9217 77.4331C58.9572 75.6936 59.3035 72.8366 57.9373 70.9042L55.7744 65.9877C55.8614 65.8941 55.9377 65.7875 55.9795 65.657L60.9519 50.2993L61.6526 53.3886L59.4241 70.6417C59.4084 70.7683 59.4196 70.8968 59.457 71.0188C59.4943 71.1407 59.5571 71.2534 59.641 71.3495C59.725 71.4456 59.8283 71.5228 59.9442 71.5761C60.0601 71.6295 60.186 71.6578 60.3135 71.6591L60.7812 71.6616L62.6742 117.881C62.6799 118.023 62.7267 118.152 62.7915 118.27C57.9004 123.661 55.6284 126.397 54.565 127.835C54.6273 126.86 54.6347 125.816 54.6347 124.804C54.6346 124.663 54.6008 124.523 54.5363 124.397ZM68.0043 124.576L67.251 125.017C67.2125 124.853 67.1292 124.704 67.0104 124.585C66.8915 124.466 66.7419 124.383 66.5783 124.344C66.4147 124.306 66.2437 124.314 66.0843 124.367C65.925 124.421 65.7838 124.517 65.6765 124.647C65.6568 124.67 63.658 126.999 57.3088 130.11L55.653 129.37C56.6794 127.911 60.2233 123.807 63.6678 119.993C64.4366 120.546 65.7093 121.25 67.082 121.075C67.4011 121.033 67.712 120.944 68.0043 120.809V124.576ZM65.0586 118.748H67.795C67.5136 119.058 67.2034 119.239 66.8555 119.285C66.2549 119.367 65.5895 119.077 65.0586 118.748ZM89.1228 130.11C82.7744 126.999 80.7757 124.67 80.7584 124.652C80.6518 124.521 80.5107 124.423 80.3512 124.368C80.1917 124.314 80.0201 124.305 79.8559 124.343C79.6916 124.381 79.5413 124.464 79.422 124.583C79.3026 124.702 79.219 124.853 79.1806 125.017L78.4273 124.576V120.808C78.7596 120.961 79.0764 121.039 79.3496 121.074C80.719 121.246 81.9933 120.545 82.7638 119.993C86.2083 123.806 89.7513 127.908 90.7778 129.37L89.1228 130.11ZM78.6366 118.748H81.3713C80.8396 119.076 80.175 119.365 79.5769 119.285C79.2273 119.24 78.918 119.058 78.6366 118.748ZM81.9884 116.943H78.2419L74.2337 71.5844C74.2138 71.3597 74.1104 71.1505 73.9439 70.9982C73.7775 70.8459 73.56 70.7614 73.3344 70.7615H73.0956C72.8699 70.7614 72.6525 70.8459 72.486 70.9982C72.3196 71.1505 72.2162 71.3597 72.1963 71.5844L68.1881 116.943H64.4432L62.5888 71.6706C63.0639 71.6722 63.5792 71.6731 64.1109 71.6731C65.1062 71.6731 66.1466 71.6698 67.0287 71.6607C70.2632 71.6238 72.4745 70.2741 73.4451 67.7945C74.3994 70.256 76.6205 71.623 79.8788 71.6607C80.7609 71.6698 81.8013 71.6731 82.7949 71.6731L83.8419 71.6722L81.9884 116.943ZM86.6169 63.9446L85.9178 58.5316L89.2803 55.3701C89.5437 55.1224 89.634 54.7416 89.5084 54.4036L86.7712 46.9615C86.7613 46.9344 86.74 46.9163 86.7285 46.8917L89.6849 33.8635C90.8771 36.778 92.587 43.5711 93.7924 49.656L94.7294 54.5283C95.5844 59.0067 91.979 60.985 88.1603 63.0789C87.6428 63.3619 87.1283 63.6505 86.6169 63.9446Z" fill="#95F4D8"/>
</svg>
